<svg width="46" height="46" viewBox="0 0 46 46" fill="none" xmlns="http://www.w3.org/2000/svg">
<path d="M34.5 4.31251C34.5005 4.02782 34.4165 3.7494 34.2586 3.51253C34.1006 3.27566 33.8759 3.09102 33.613 2.982C33.35 2.87299 33.0605 2.84452 32.7814 2.9002C32.5022 2.95588 32.2458 3.0932 32.0448 3.29476L26.2948 9.04476C26.1613 9.1785 26.0556 9.33723 25.9836 9.51186C25.9116 9.68649 25.8747 9.87361 25.875 10.0625V18.0924L23.7446 20.2199C23.3185 20.1068 22.872 20.093 22.4397 20.1797C22.0073 20.2663 21.6007 20.451 21.251 20.7196C20.9013 20.9882 20.6179 21.3335 20.4227 21.7288C20.2275 22.1242 20.1257 22.5591 20.125 23C20.1252 23.4092 20.2127 23.8136 20.3817 24.1862C20.5507 24.5588 20.7973 24.8911 21.105 25.1607C21.4127 25.4304 21.7744 25.6313 22.1659 25.75C22.5575 25.8687 22.9699 25.9025 23.3755 25.8491C23.7812 25.7956 24.1707 25.6562 24.5182 25.4402C24.8656 25.2241 25.163 24.9364 25.3903 24.5962C25.6177 24.256 25.7698 23.8712 25.8365 23.4676C25.9032 23.0639 25.883 22.6506 25.7773 22.2554L27.9076 20.125H35.9375C36.1264 20.1253 36.3135 20.0884 36.4881 20.0164C36.6628 19.9444 36.8215 19.8387 36.9553 19.7053L42.7052 13.9553C42.9068 13.7542 43.0441 13.4978 43.0998 13.2187C43.1555 12.9395 43.127 12.65 43.018 12.3871C42.909 12.1241 42.7243 11.8994 42.4875 11.7415C42.2506 11.5835 41.9722 11.4995 41.6875 11.5H34.5V4.31251ZM40.089 20.6368C40.5837 24.2166 39.9416 27.8614 38.2533 31.0567C36.5651 34.252 33.9159 36.8364 30.6798 38.445C27.4437 40.0536 23.784 40.6053 20.2175 40.022C16.651 39.4388 13.3578 37.7502 10.8026 35.1946C8.24746 32.6389 6.55949 29.3453 5.97697 25.7787C5.39444 22.2121 5.94679 18.5526 7.55605 15.3168C9.1653 12.081 11.7502 9.43229 14.9458 7.74464C18.1414 6.05699 21.7864 5.4156 25.3661 5.91101L24.265 7.01213C23.8641 7.41255 23.546 7.88804 23.329 8.41144C23.1119 8.93484 23.0001 9.49589 23 10.0625C20.4412 10.0625 17.9399 10.8213 15.8123 12.2429C13.6847 13.6645 12.0265 15.685 11.0473 18.049C10.0681 20.4131 9.8119 23.0144 10.3111 25.524C10.8103 28.0336 12.0425 30.3389 13.8518 32.1482C15.6611 33.9575 17.9664 35.1897 20.476 35.6889C22.9856 36.1881 25.5869 35.9319 27.951 34.9527C30.315 33.9735 32.3355 32.3153 33.7571 30.1877C35.1787 28.0601 35.9375 25.5588 35.9375 23C37.0809 22.999 38.177 22.544 38.985 21.735L40.089 20.6368ZM23 12.9375C21.0098 12.9375 19.0643 13.5277 17.4096 14.6333C15.7548 15.739 14.4651 17.3106 13.7035 19.1493C12.9419 20.9879 12.7426 23.0112 13.1308 24.9631C13.5191 26.915 14.4775 28.708 15.8847 30.1153C17.292 31.5225 19.085 32.4809 21.0369 32.8692C22.9888 33.2574 25.0121 33.0582 26.8508 32.2965C28.6894 31.5349 30.261 30.2452 31.3667 28.5904C32.4723 26.9357 33.0625 24.9902 33.0625 23H29.0979L28.7385 23.3594C28.6694 24.4639 28.283 25.525 27.6258 26.4153C26.9685 27.3056 26.0683 27.9874 25.0331 28.3787C23.998 28.7701 22.8719 28.8544 21.79 28.6216C20.7081 28.3888 19.7164 27.8487 18.9339 27.0661C18.1513 26.2836 17.6113 25.2919 17.3784 24.21C17.1456 23.1281 17.2299 22.002 17.6213 20.9669C18.0126 19.9317 18.6944 19.0315 19.5847 18.3743C20.475 17.717 21.5361 17.3306 22.6406 17.2615L23 16.9021V12.9375Z" fill="white"/>
</svg>
